# xmcd
#
# Track frame offsets: 
#        150
#        25290
#        47695
#        70082
#        72495
#        93452
#        119772
#        149460
#        168220
#
# Disc length: 2612 seconds
#
# Revision: 0
# Processed by: cddbd v1.5.2PL0 Copyright (c) Steve Scherf et al.
# Submitted via: ExactAudioCopy v1.0b1
#
DISCID=830a3209
DTITLE=Jorge Salan - From Now On
DYEAR=2004
DGENRE=Heavy Metal
TTITLE0=Apprehension
TTITLE1=The Endless Battle
TTITLE2=I'll Be Waiting
TTITLE3=Interlude
TTITLE4=Back In Time
TTITLE5=Pathways To Death
TTITLE6=Doors Made Of Rye
TTITLE7=Brand New Day
TTITLE8=Train Of Hopes
EXTD=
EXTT0=
EXTT1=
EXTT2=
EXTT3=
EXTT4=
EXTT5=
EXTT6=
EXTT7=
EXTT8=
PLAYORDER=
